<?xml version="1.0" encoding="UTF-8" standalone="no"?>
<svg width="460px" height="170px" viewBox="0 0 460 170" version="1.1" xmlns="http://www.w3.org/2000/svg" xmlns:xlink="http://www.w3.org/1999/xlink">
    <!-- Generator: Sketch 50.2 (55047) - http://www.bohemiancoding.com/sketch -->
    <title>source1</title>
    <desc>Created with Sketch.</desc>
    <defs></defs>
    <g id="source1" stroke="none" stroke-width="1" fill="none" fill-rule="evenodd">
        <path d="M141.832,96.27 L141.832,32.047 L160.852,32.047 C166.375,32.047 171.023,33.555 174.789,36.566 C178.617,39.582 180.531,43.441 180.531,48.148 C180.531,53.484 178.18,57.691 173.469,60.77 C181.066,64.031 184.863,69.59 184.863,77.434 C184.863,81.578 183.734,85.125 181.473,88.074 C179.215,90.965 176.453,93.066 173.188,94.387 C169.922,95.641 166.375,96.27 162.547,96.27 L141.832,96.27 Z M148.895,64.441 L148.895,90.43 L162.359,90.43 C166.629,90.43 170.145,89.301 172.906,87.039 C175.73,84.781 177.141,81.578 177.141,77.434 C177.141,73.293 175.73,70.09 172.906,67.832 C170.145,65.57 166.629,64.441 162.359,64.441 L148.895,64.441 Z M148.895,37.98 L148.895,58.508 L160.852,58.508 C164.617,58.508 167.539,57.473 169.609,55.402 C171.742,53.328 172.812,50.91 172.812,48.148 C172.812,45.387 171.773,43.004 169.703,40.992 C167.633,38.984 164.68,37.98 160.852,37.98 L148.895,37.98 Z" id="Fill-1" fill="#000000"></path>
        <path d="M191.184,42.219 C190.242,41.215 189.77,39.988 189.77,38.547 C189.77,37.102 190.242,35.91 191.184,34.965 C192.188,33.961 193.41,33.461 194.855,33.461 C196.301,33.461 197.492,33.961 198.434,34.965 C199.438,35.91 199.941,37.102 199.941,38.547 C199.941,39.988 199.438,41.215 198.434,42.219 C197.492,43.16 196.301,43.629 194.855,43.629 C193.41,43.629 192.188,43.16 191.184,42.219 Z M191.652,96.27 L198.059,96.27 L198.059,52.199 L191.652,52.199 L191.652,96.27 Z" id="Fill-2" fill="#000000"></path>
        <path d="M215.406,61.805 C212.332,65.258 210.793,69.398 210.793,74.234 C210.793,79.066 212.332,83.242 215.406,86.758 C218.547,90.211 222.156,91.938 226.238,91.938 C230.316,91.938 233.895,90.211 236.973,86.758 C240.109,83.242 241.68,79.066 241.68,74.234 C241.68,69.398 240.109,65.258 236.973,61.805 C233.895,58.289 230.316,56.531 226.238,56.531 C222.156,56.531 218.547,58.289 215.406,61.805 Z M211.172,90.805 C206.648,86.098 204.391,80.574 204.391,74.234 C204.391,67.895 206.617,62.398 211.074,57.754 C215.598,53.047 220.648,50.691 226.238,50.691 C231.824,50.691 236.848,53.047 241.305,57.754 C245.824,62.398 248.082,67.895 248.082,74.234 C248.082,80.574 245.855,86.098 241.398,90.805 C236.941,95.453 231.949,97.773 226.426,97.773 C220.836,97.773 215.754,95.453 211.172,90.805 Z" id="Fill-3" fill="#000000"></path>
        <path d="M274.652,67.359 C267.871,65.539 262.691,63.152 259.113,60.203 C255.598,57.254 253.84,53.203 253.84,48.055 C253.84,42.406 255.629,38.105 259.207,35.156 C262.785,32.141 267.871,30.637 274.461,30.637 C282.434,30.637 289.277,34.309 294.992,41.652 L289.719,46.078 C285.262,40.051 280.176,37.039 274.461,37.039 C269.629,37.039 266.176,37.918 264.105,39.676 C262.031,41.434 260.996,44.227 260.996,48.055 C260.996,49.5 261.215,50.816 261.656,52.012 C262.156,53.141 262.66,54.051 263.164,54.742 C263.727,55.434 264.637,56.09 265.895,56.719 C267.148,57.348 268.121,57.816 268.812,58.133 C269.566,58.383 270.82,58.789 272.578,59.355 C274.336,59.859 275.531,60.203 276.156,60.391 C282.562,62.59 286.734,64.254 288.68,65.383 C294.145,68.582 296.875,73.543 296.875,80.262 C296.875,85.848 294.77,90.18 290.566,93.254 C286.359,96.27 280.582,97.773 273.238,97.773 C269.094,97.773 265.078,96.582 261.184,94.195 C257.293,91.812 254.027,88.578 251.391,84.496 L256.949,80.543 C258.832,83.68 261.246,86.254 264.199,88.266 C267.148,90.273 270.164,91.277 273.238,91.277 C278.887,91.277 283.031,90.398 285.668,88.641 C288.367,86.82 289.719,84.027 289.719,80.262 C289.719,76.555 288.555,73.855 286.234,72.16 C283.973,70.402 280.113,68.805 274.652,67.359 Z" id="Fill-4" fill="#000000"></path>
        <path d="M340.531,89.301 C338.27,92.125 335.793,94.258 333.094,95.703 C330.457,97.086 327.098,97.773 323.016,97.773 C317.43,97.773 312.344,95.453 307.762,90.805 C303.242,86.098 300.98,80.574 300.98,74.234 C300.98,67.895 303.211,62.398 307.668,57.754 C312.188,53.047 317.242,50.691 322.828,50.691 C325.902,50.691 328.918,51.508 331.867,53.141 C334.82,54.711 337.359,56.844 339.496,59.543 L334.785,63.215 C331.648,58.758 327.66,56.531 322.828,56.531 C318.746,56.531 315.137,58.289 312,61.805 C308.922,65.258 307.387,69.398 307.387,74.234 C307.387,79.066 308.922,83.242 312,86.758 C315.137,90.211 318.746,91.938 322.828,91.938 C326.094,91.938 328.605,91.465 330.359,90.523 C332.184,89.52 333.906,87.949 335.539,85.816 L340.531,89.301 Z" id="Fill-5" fill="#000000"></path>
        <path d="M354.133,61.805 C351.059,65.258 349.52,69.398 349.52,74.234 C349.52,79.066 351.059,83.242 354.133,86.758 C357.273,90.211 360.883,91.938 364.961,91.938 C369.043,91.938 372.621,90.211 375.699,86.758 C378.836,83.242 380.406,79.066 380.406,74.234 C380.406,69.398 378.836,65.258 375.699,61.805 C372.621,58.289 369.043,56.531 364.961,56.531 C360.883,56.531 357.273,58.289 354.133,61.805 Z M349.895,90.805 C345.375,86.098 343.117,80.574 343.117,74.234 C343.117,67.895 345.344,62.398 349.801,57.754 C354.32,53.047 359.375,50.691 364.961,50.691 C370.551,50.691 375.57,53.047 380.027,57.754 C384.551,62.398 386.809,67.895 386.809,74.234 C386.809,80.574 384.582,86.098 380.125,90.805 C375.668,95.453 370.676,97.773 365.152,97.773 C359.562,97.773 354.48,95.453 349.895,90.805 Z" id="Fill-6" fill="#000000"></path>
        <path d="M392.66,80.07 L392.66,52.199 L398.969,52.199 L398.969,80.07 C398.969,83.398 400.164,86.223 402.547,88.547 C404.996,90.805 408.199,91.938 412.152,91.938 C416.109,91.938 419.246,90.273 421.57,86.945 C423.953,83.555 425.148,79.352 425.148,74.328 L425.148,52.199 L431.645,52.199 L431.645,96.27 L425.148,96.27 L425.148,92.406 C421.508,96.047 417.176,97.867 412.152,97.867 C406.566,97.867 401.922,96.27 398.215,93.066 C394.512,89.863 392.66,85.535 392.66,80.07 Z" id="Fill-7" fill="#000000"></path>
        <polygon id="Fill-8" fill="#000000" points="437.488 58.035 437.488 52.199 443.137 52.199 443.137 37.602 449.539 37.602 449.539 52.199 459.711 52.199 459.711 58.035 449.539 58.035 449.539 96.27 443.137 96.27 443.137 58.035"></polygon>
        <path d="M59.609,58.812 C60.488,56.238 60.828,53.484 60.602,50.773 C60.406,48.422 59.777,46.094 58.617,44.039 C56.777,40.773 53.688,38.359 50.34,36.684 C46.992,35.004 43.355,33.996 39.758,32.957 C26.469,29.121 13.332,24.773 0.379,19.922 C0.109,23.348 0.445,26.82 1.375,30.133 C2.367,33.68 4.07,37.082 6.668,39.691 C8.762,41.797 11.371,43.332 14.102,44.496 C16.832,45.66 19.699,46.473 22.551,47.297 C34.98,50.883 47.336,54.723 59.609,58.812 Z" id="Fill-9" fill="#8A9C44"></path>
        <path d="M59.676,58.812 C58.797,56.238 58.457,53.484 58.684,50.773 C58.879,48.422 59.512,46.094 60.668,44.039 C62.512,40.773 65.598,38.359 68.945,36.684 C72.297,35.004 75.93,33.996 79.531,32.957 C92.816,29.121 105.957,24.773 118.906,19.922 C119.18,23.348 118.84,26.82 117.914,30.133 C116.918,33.68 115.215,37.082 112.617,39.691 C110.527,41.797 107.914,43.332 105.184,44.496 C102.453,45.66 99.59,46.473 96.734,47.297 C84.305,50.883 71.949,54.723 59.676,58.812 Z" id="Fill-10" fill="#8A9C44"></path>
        <path d="M0.383,19.922 C0.109,23.348 0.445,26.82 1.371,30.133 C2.367,33.676 4.07,37.082 6.668,39.691 C8.762,41.797 11.371,43.332 14.102,44.496 C16.832,45.66 19.699,46.473 22.551,47.297 C34.98,50.883 47.336,54.723 59.609,58.812 C59.625,58.773 59.629,58.734 59.645,58.695 C59.656,58.734 59.664,58.773 59.676,58.812 C71.949,54.723 84.309,50.883 96.738,47.297 C99.59,46.473 102.453,45.66 105.184,44.496 C107.914,43.332 110.527,41.797 112.621,39.691 C115.215,37.082 116.918,33.676 117.91,30.133 C118.84,26.82 119.176,23.348 118.906,19.922 C105.957,24.773 92.816,29.125 79.531,32.957 C75.93,33.996 72.297,35.008 68.945,36.684 C65.598,38.363 62.512,40.777 60.668,44.039 C60.254,44.777 59.926,45.559 59.645,46.355 C59.359,45.559 59.035,44.777 58.617,44.039 C56.777,40.777 53.691,38.363 50.34,36.684 C46.992,35.008 43.355,33.996 39.758,32.957 C26.469,29.125 13.332,24.773 0.383,19.922 Z" id="Fill-11" fill="#1397F1"></path>
        <path d="M59.66,80.707 C60.402,78.539 60.688,76.219 60.496,73.938 C60.332,71.961 59.801,70 58.824,68.27 C57.277,65.523 54.676,63.488 51.859,62.078 C49.039,60.664 45.977,59.816 42.949,58.941 C31.762,55.715 20.703,52.051 9.801,47.965 C9.57,50.852 9.855,53.777 10.637,56.562 C11.473,59.547 12.906,62.41 15.094,64.609 C16.855,66.383 19.051,67.676 21.352,68.656 C23.648,69.637 26.062,70.32 28.465,71.012 C38.926,74.031 49.328,77.262 59.66,80.707 Z" id="Fill-12" fill="#1397F1"></path>
        <path d="M59.625,80.707 C58.887,78.539 58.598,76.219 58.789,73.938 C58.957,71.961 59.484,70 60.461,68.27 C62.012,65.523 64.609,63.488 67.43,62.078 C70.25,60.664 73.309,59.816 76.34,58.941 C87.523,55.715 98.586,52.051 109.484,47.965 C109.715,50.852 109.43,53.777 108.652,56.562 C107.812,59.547 106.379,62.41 104.195,64.609 C102.43,66.383 100.234,67.676 97.934,68.656 C95.637,69.637 93.223,70.32 90.824,71.012 C80.359,74.031 69.957,77.262 59.625,80.707 Z" id="Fill-13" fill="#1397F1"></path>
        <path d="M59.996,99.402 L59.996,93.5 C59.898,91.957 59.422,90.438 58.621,89.109 C57.367,87.023 55.355,85.473 53.184,84.375 C51.012,83.273 48.656,82.586 46.324,81.887 C37.691,79.293 29.129,76.457 20.652,73.387 C20.473,75.621 20.695,77.887 21.297,80.043 C21.945,82.355 23.055,84.574 24.75,86.277 C26.117,87.648 27.82,88.645 29.602,89.406 C31.379,90.164 33.25,90.691 35.105,91.234 C43.492,93.68 51.793,96.406 59.996,99.402 Z" id="Fill-14" fill="#1397F1"></path>
        <path d="M60.016,99.367 C59.441,97.688 59.223,95.891 59.367,94.125 C59.496,92.59 59.906,91.07 60.664,89.734 C61.863,87.605 63.875,86.031 66.059,84.938 C68.242,83.844 70.613,83.184 72.961,82.508 C81.625,80.008 90.191,77.172 98.637,74.008 C98.812,76.242 98.594,78.508 97.988,80.668 C97.34,82.977 96.227,85.195 94.535,86.898 C93.172,88.273 91.469,89.273 89.688,90.031 C87.906,90.793 86.039,91.32 84.18,91.859 C76.074,94.195 68.02,96.699 60.016,99.367 Z" id="Fill-15" fill="#1397F1"></path>
        <path d="M66.91,0.301 C66.461,0.289 66.012,0.293 65.562,0.309 C64.359,0.355 63.164,0.5 61.992,0.75 C57.078,1.781 52.621,4.496 48.996,7.969 C45.711,11.117 43.035,14.926 41.32,19.145 C40.293,21.668 39.641,24.336 39.332,27.047 C40.297,27.328 41.254,27.633 42.223,27.91 C43.996,28.422 45.918,28.965 47.953,29.645 C49.473,30.152 51.062,30.734 52.691,31.461 C53.238,31.703 53.785,31.961 54.324,32.23 C55.434,32.789 56.543,33.414 57.637,34.125 C58.301,34.559 58.91,35.176 59.559,35.676 C61.312,34.316 63.137,33.148 64.965,32.23 C68.246,30.59 71.426,29.566 74.297,28.715 C75.25,28.434 76.176,28.168 77.066,27.91 C77.523,27.777 77.98,27.633 78.438,27.5 C77.363,26.742 76.391,25.84 75.578,24.805 C75.066,24.145 74.609,23.434 74.297,22.656 C73.984,21.879 73.82,21.035 73.891,20.203 C73.965,19.324 74.309,18.477 74.832,17.773 C75.355,17.066 76.059,16.5 76.848,16.113 C78.426,15.336 80.301,15.297 81.996,15.766 C83.48,16.18 84.852,16.969 85.949,18.043 C85.461,11.684 81.566,5.691 75.961,2.66 C73.188,1.164 70.059,0.383 66.91,0.301 Z" id="Fill-16" fill="#1397F1"></path>
        <polygon id="Fill-17" fill="#1397F1" points="55.227 169.707 64.059 169.707 64.059 94.512 55.227 94.512"></polygon>
    </g>
</svg>